<svg width="20" height="20" viewBox="0 0 20 20" fill="none" xmlns="http://www.w3.org/2000/svg">
<path d="M4.1121 17.0826C3.78518 17.0826 3.50687 16.9681 3.27716 16.7391C3.04746 16.5101 2.93262 16.2319 2.93262 15.9047V14.3935L6.07362 11.6035V17.0826H4.1121ZM6.84285 17.0826V13.9416H13.1569V17.0826H6.84285ZM13.9262 17.0826V10.6381L10.556 7.65158L12.9326 5.55064L16.6745 8.87112C16.8027 8.99079 16.9002 9.12588 16.967 9.27639C17.0338 9.42692 17.0672 9.58726 17.0672 9.75741V15.9027C17.0672 16.2299 16.9526 16.5084 16.7236 16.7381C16.4946 16.9678 16.2165 17.0826 15.8893 17.0826H13.9262ZM2.93262 13.3487V9.76281C2.93262 9.59299 2.966 9.4297 3.03276 9.27293C3.09954 9.11617 3.19703 8.98223 3.32524 8.87112L9.21464 3.65C9.32575 3.54423 9.449 3.46838 9.58439 3.42243C9.71979 3.37649 9.85842 3.35352 10.0003 3.35352C10.1421 3.35352 10.2806 3.37649 10.4157 3.42243C10.5509 3.46838 10.674 3.54423 10.7851 3.65L12.3556 5.04904L2.93262 13.3487Z" fill="#6C7074"/>
</svg>
