<svg width="20" height="20" viewBox="0 0 20 20" fill="none" xmlns="http://www.w3.org/2000/svg">
<path d="M7.49984 1.66602C4.28805 1.66602 1.6665 4.28756 1.6665 7.49935C1.6665 10.7111 4.28805 13.3327 7.49984 13.3327C8.9565 13.3327 10.2873 12.7894 11.3117 11.9004L11.6665 12.2552V13.3327L16.6665 18.3327L18.3332 16.666L13.3332 11.666H12.2557L11.9009 11.3112C12.7899 10.2869 13.3332 8.95601 13.3332 7.49935C13.3332 4.28756 10.7116 1.66602 7.49984 1.66602ZM7.49984 3.33268C9.81089 3.33268 11.6665 5.18829 11.6665 7.49935C11.6665 9.8104 9.81089 11.666 7.49984 11.666C5.18878 11.666 3.33317 9.8104 3.33317 7.49935C3.33317 5.18829 5.18878 3.33268 7.49984 3.33268Z" fill="#6C7074"/>
</svg>
